<svg xmlns="http://www.w3.org/2000/svg" viewBox="0 0 560 152" width="560" height="152" role="img" aria-label="Ligero EXAMPLES">
  <g transform="translate(-158.077,14.781) scale(0.5762)"><g><path d=" M 316.099 16 L 519 16.088 L 518.901 196.495 L 316 196.407 L 316.099 16 Z " fill="none"/><path d=" M 450.309 65.707 Q 451.35 65.486 451.598 65.971 Q 452.044 67.161 453.084 67.822 Q 457.166 70.274 463.69 70.554 Q 469.866 71.321 473.008 74.784 Q 474.382 76.207 474.693 78.574 L 474.99 78.486 Q 476.479 75.756 479.054 73.991 Q 483.509 70.549 491.345 70.113 Q 499.061 69.395 503.438 65.707 Q 504.642 67.016 503.934 70.025 Q 501.99 77.727 495.905 81.747 Q 491.653 85.017 485.398 86.506 Q 480.6 87.175 478.162 89.943 Q 473.484 112.664 457.248 125.108 Q 445.992 134.666 428.106 138.328 Q 423.558 131.178 417.203 125.637 L 410.066 120.525 L 409.967 120.789 C 417.141 128.229 423.919 135.969 430.287 143.968 L 430.287 143.968 L 431.773 145.114 C 432.243 145.367 432.242 145.923 432.17 146.348 L 432.17 146.348 L 431.476 147.141 Q 429.295 148.022 425.529 147.493 Q 410.502 145.079 402.434 136.477 Q 395.879 130.495 391.729 122.376 Q 389.886 115.377 384.691 111.359 Q 380.902 108.735 375.374 107.658 Q 365.341 103.975 357.631 98.227 Q 353.356 95.154 348.413 92.675 Q 344.016 89.71 336.518 89.502 Q 333.745 89.681 332.157 90.912 L 332.058 89.767 Q 333.337 84.735 337.311 82.099 Q 345.496 74.923 362.686 75.754 Q 377.737 77.266 388.755 82.364 Q 399.533 86.265 409.075 91.265 Q 416.459 94.923 424.637 97.875 Q 433.892 102.337 448.327 102.193 Q 459.581 100.919 465.276 94.702 Q 467.635 92.745 467.854 88.885 Q 467.386 86.921 465.772 85.977 Q 458.433 83.601 453.58 79.015 Q 449.491 75.247 449.615 67.734 Q 449.617 66.413 450.309 65.707 Z " fill="rgb(6,35,79)"/><path d=" M 502.447 65.883 L 501.456 66.94 L 502.447 65.883 Z  M 452.292 66.94 L 453.084 67.822 L 452.292 66.94 Z  M 356.937 75.577 L 360.406 75.666 L 356.937 75.754 L 356.937 75.577 Z  M 498.284 79.632 L 497.094 80.865 L 498.284 79.632 Z  M 336.518 89.502 L 338.401 89.59 L 336.518 89.679 L 336.518 89.502 Z " fill-rule="evenodd" fill="rgb(103,103,103)"/><path d=" M 336.32 92.499 L 338.203 92.587 Q 341.783 111.437 355.351 121.406 Q 368.192 132.11 387.665 136.918 L 387.665 136.741 Q 368.075 130.716 355.054 118.85 Q 343.484 109.748 340.582 92.94 L 340.879 92.851 Q 344.707 93.855 347.521 95.76 Q 351.084 110.042 361.695 118.057 Q 374.985 130.388 396.585 135.331 L 396.685 135.067 Q 376.82 128.933 363.578 116.912 Q 354.219 109.81 350.692 97.522 L 350.99 97.434 Q 356.002 100.116 360.01 103.692 Q 364.988 112.22 372.796 118.233 Q 381.672 125.501 393.909 129.779 Q 397.506 135.834 403.127 140.09 L 404.218 140.707 L 403.92 140.795 L 403.326 140.619 C 396.962 140.526 390.531 139.827 384.493 137.975 L 384.493 137.975 L 384.394 139.826 C 384.748 142.192 385.417 144.539 386.574 146.7 L 386.574 146.7 L 386.079 147.317 Q 385.286 147.934 383.501 147.67 Q 378.009 146.119 374.878 142.47 Q 371.052 138.38 368.832 132.863 Q 356.127 127.767 347.322 119.203 Q 336.836 109.755 333.247 94.173 L 333.941 93.38 L 336.32 92.499 Z " fill="rgb(147,178,232)"/><path d=" M 378.744 96.377 C 380.958 96.286 383.456 96.654 384.79 98.404 L 384.79 98.404 L 385.385 99.638 L 384.493 100.783 C 382.191 102.097 378.501 100.736 377.059 98.933 L 377.059 98.933 L 376.662 97.699 L 377.554 96.729 L 378.744 96.377 Z " fill="rgb(252,251,250)"/><path d=" M 364.47 105.895 Q 369.888 109.627 377.554 111.359 Q 383.51 112.674 386.971 116.206 Q 389.087 118.379 389.746 121.847 Q 390.618 125.566 392.521 128.369 L 392.026 128.104 Q 380.153 122.797 371.706 114.444 Q 367.453 110.566 364.47 105.895 Z " fill="rgb(147,178,232)"/><path d=" M 359.316 115.766 L 361.695 118.057 L 359.316 115.766 Z  M 362.488 115.766 L 363.479 116.823 L 362.488 115.766 Z  M 354.162 117.881 L 354.955 118.762 L 354.162 117.881 Z  M 366.056 118.939 L 366.849 119.82 L 366.056 118.939 Z  M 378.347 119.82 L 379.338 120.877 L 378.347 119.82 Z  M 356.937 120.349 L 357.73 121.23 L 356.937 120.349 Z  M 417.203 125.637 L 418.789 127.223 L 417.203 125.637 Z  M 401.542 135.507 L 402.334 136.389 L 401.542 135.507 Z  M 401.74 140.619 L 403.425 140.707 L 401.74 140.795 L 401.74 140.619 Z  M 428.701 142.382 L 430.287 143.968 L 428.701 142.382 Z " fill-rule="evenodd" fill="rgb(103,103,103)"/></g></g>
  <g font-family="'Inter','Segoe UI',system-ui,-apple-system,sans-serif">
    <text x="175.0" y="86" font-size="72" font-weight="800" letter-spacing="-2" fill="#06234f">ligero</text>
    <g transform="translate(175.0,104)">
      <rect x="0" y="0" rx="7" ry="7" width="148" height="30" fill="#d97706"/>
      <text x="74.0" y="21" font-size="18" font-weight="700" letter-spacing="1" text-anchor="middle" fill="#ffffff">EXAMPLES</text>
    </g>
  </g>
</svg>
